<?xml version="1.0" standalone="no"?><!DOCTYPE svg PUBLIC "-//W3C//DTD SVG 1.1//EN" "http://www.w3.org/Graphics/SVG/1.1/DTD/svg11.dtd"><svg t="1587372696707" class="icon" viewBox="0 0 1024 1024" version="1.1" xmlns="http://www.w3.org/2000/svg" p-id="43806" width="200" height="200" xmlns:xlink="http://www.w3.org/1999/xlink"><defs><style type="text/css">@font-face { font-family: element-icons; src: url("chrome-extension://moombeodfomdpjnpocobemoiaemednkg/fonts/element-icons.woff") format("woff"), url("chrome-extension://moombeodfomdpjnpocobemoiaemednkg/fonts/element-icons.ttf ") format("truetype"); }
</style></defs><path d="M537.6 486.4c-6.4-6.4-19.2-6.4-25.599-6.4s-19.199 0-25.599 6.4l-224 224c-12.8 12.8-12.8 31.999 0 44.799s31.999 12.8 44.799 0l204.799-198.4 198.4 204.799c12.799 6.4 38.399 6.4 51.2 0s6.4-38.399 0-51.2l-224-224z" p-id="43807" fill="#666666"></path><path d="M313.6 537.6l198.4-204.799 198.4 204.799c12.8 12.8 31.999 12.8 44.799 0s12.8-38.4 6.4-51.199l-224-224c-6.4-6.4-19.2-6.4-25.599-6.4s-19.199 0-25.599 6.4l-224 224c-12.8 12.8-12.8 31.999 0 44.799s38.4 12.8 51.199 6.4z" p-id="43808" fill="#666666"></path></svg>